<?xml version="1.0" standalone="no"?>
<!DOCTYPE svg PUBLIC "-//W3C//DTD SVG 20010904//EN"
 "http://www.w3.org/TR/2001/REC-SVG-20010904/DTD/svg10.dtd">
<svg version="1.0" xmlns="http://www.w3.org/2000/svg"
 width="666.000000pt" height="375.000000pt" viewBox="0 0 666.000000 375.000000"
 preserveAspectRatio="xMidYMid meet">

<g transform="translate(0.000000,375.000000) scale(0.100000,-0.100000)"
fill="#000000" stroke="none">
<path d="M0 3541 c0 -181 2 -210 16 -215 9 -3 1507 -6 3330 -6 l3314 0 0 215
0 215 -3330 0 -3330 0 0 -209z m249 152 c1 -1 -6 -12 -18 -24 -17 -18 -21 -19
-21 -7 0 9 -5 18 -12 20 -9 3 -8 9 2 20 12 12 19 13 30 5 8 -6 17 -12 19 -14z
m411 -8 c0 -33 -2 -35 -35 -35 -33 0 -35 2 -35 35 0 33 2 35 35 35 33 0 35 -2
35 -35z m130 0 c0 -32 -2 -35 -30 -35 -28 0 -30 3 -30 35 0 32 2 35 30 35 28
0 30 -3 30 -35z m268 -2 c3 -31 1 -33 -27 -33 -29 0 -31 3 -31 36 0 33 2 35
28 32 22 -2 28 -8 30 -35z m410 2 c0 -33 -2 -35 -34 -35 -32 0 -34 2 -34 35 0
33 2 35 34 35 32 0 34 -2 34 -35z m253 14 c8 -15 8 -24 0 -32 -15 -15 -46 16
-38 37 9 22 24 20 38 -5z m410 5 c17 -21 0 -49 -32 -49 -24 0 -36 23 -25 51 7
19 40 18 57 -2z m268 -11 c1 -1 -6 -12 -18 -24 -17 -18 -21 -19 -21 -7 0 9 -5
18 -12 20 -9 3 -8 9 2 20 12 12 19 13 30 5 8 -6 17 -12 19 -14z m805 5 c8 -14
7 -21 -6 -34 -20 -20 -48 -12 -48 13 0 14 2 15 9 4 5 -8 16 -11 25 -8 25 10
19 27 -10 27 -15 0 -23 4 -19 11 9 14 36 7 49 -13z m140 0 c8 -14 7 -22 -7
-35 -18 -17 -18 -17 -11 10 6 25 4 28 -12 25 -11 -2 -18 -11 -16 -21 2 -9 -2
-17 -8 -17 -14 0 -13 47 3 53 20 9 39 3 51 -15z m1466 7 c13 -16 4 -59 -11
-49 -6 4 -6 10 0 18 12 15 5 26 -17 26 -10 0 -12 -7 -7 -27 5 -23 4 -25 -9
-14 -19 16 -20 33 -4 49 16 16 33 15 48 -3z m135 -20 c0 -25 -4 -30 -24 -30
-32 0 -49 28 -31 50 7 9 23 15 34 13 16 -2 21 -10 21 -33z m-4842 -12 c-7 -17
-30 -17 -35 -1 -3 7 0 18 6 24 13 14 36 -5 29 -23z m415 11 c1 0 -11 -1 -27
-1 -22 0 -26 3 -17 13 8 9 15 9 26 1 8 -6 16 -12 18 -13z m1482 13 c0 -19 -21
-37 -42 -37 -13 0 -18 8 -18 25 0 21 5 25 30 25 18 0 30 -5 30 -13z m258 -9
c-2 -15 -11 -24 -25 -26 -19 -3 -23 1 -23 22 0 21 5 26 26 26 21 0 25 -4 22
-22z m676 -17 c-3 -3 -9 1 -13 8 -6 8 -14 10 -22 5 -11 -6 -11 -4 0 10 14 17
16 17 28 0 7 -10 10 -20 7 -23z m134 17 c-2 -15 -11 -24 -25 -26 -19 -3 -23 1
-23 22 0 21 5 26 26 26 21 0 25 -4 22 -22z m1212 3 c0 -17 -18 -31 -41 -31 -5
0 -9 11 -9 25 0 20 5 25 25 25 18 0 25 -5 25 -19z m920 -6 c0 -18 -5 -25 -20
-25 -15 0 -20 7 -20 25 0 18 5 25 20 25 15 0 20 -7 20 -25z m257 9 c9 -23 -13
-40 -32 -24 -12 10 -13 16 -4 26 15 18 28 18 36 -2z m149 -20 c-7 -7 -14 -8
-22 0 -7 7 -8 14 0 22 7 7 14 8 22 0 7 -7 8 -14 0 -22z m771 30 c-3 -3 -12 -4
-19 -1 -8 3 -5 6 6 6 11 1 17 -2 13 -5z m-6010 -10 c-3 -3 -12 -4 -19 -1 -8 3
-5 6 6 6 11 1 17 -2 13 -5z m543 -9 c11 -13 8 -15 -13 -15 -19 0 -25 4 -21 15
4 8 10 15 14 15 4 0 13 -7 20 -15z m264 6 c3 -5 -1 -14 -8 -20 -12 -10 -14 -9
-11 6 2 10 4 19 4 21 2 5 10 2 15 -7z m140 3 c9 -3 16 -12 16 -19 0 -20 -26
-25 -47 -10 -16 13 -16 16 -3 25 18 12 15 11 34 4z m546 -8 c0 -19 -14 -28
-34 -20 -25 10 -19 34 9 34 15 0 25 -6 25 -14z m801 7 c-11 -5 -11 -7 0 -14
10 -6 6 -9 -13 -9 -18 0 -28 5 -28 15 0 10 9 15 28 14 15 0 21 -3 13 -6z m934
-11 c0 -18 -20 -15 -23 4 -3 10 1 15 10 12 7 -3 13 -10 13 -16z m1742 2 c0 -8
-8 -14 -17 -14 -9 0 -17 6 -17 13 0 7 8 14 17 14 9 1 17 -5 17 -13z m-3787 -9
c0 -8 -4 -15 -10 -15 -5 0 -10 7 -10 15 0 8 5 15 10 15 6 0 10 -7 10 -15z
m980 -2 c0 -15 -2 -16 -10 -3 -6 10 -10 11 -10 3 0 -7 -7 -13 -15 -13 -8 0
-15 7 -15 15 0 9 9 15 25 15 17 0 25 -5 25 -17z m-2170 -1 c0 -5 -7 -9 -15 -9
-8 0 -15 4 -15 9 0 4 7 8 15 8 8 0 15 -4 15 -8z m25 -2 c3 -5 1 -10 -4 -10 -6
0 -11 5 -11 10 0 6 2 10 4 10 3 0 8 -4 11 -10z m3758 3 c-7 -2 -21 -2 -30 0
-10 3 -4 5 12 5 17 0 24 -2 18 -5z m404 1 c-3 -3 -12 -4 -19 -1 -8 3 -5 6 6 6
11 1 17 -2 13 -5z m-4044 -11 c-7 -2 -19 -2 -25 0 -7 3 -2 5 12 5 14 0 19 -2
13 -5z m-383 -117 c0 -31 -14 -40 -30 -21 -10 12 -10 18 0 30 18 22 30 18 30
-9z m280 8 c0 -14 -3 -14 -15 -4 -11 9 -19 10 -27 2 -15 -15 1 -35 23 -29 11
3 17 1 13 -4 -15 -25 -59 6 -48 35 8 21 54 21 54 0z m710 -12 c0 -21 -5 -28
-20 -28 -15 0 -20 7 -20 28 0 21 5 28 20 28 15 0 20 -7 20 -28z m3793 8 c3
-10 -1 -24 -8 -30 -10 -9 -16 -6 -25 10 -6 11 -8 25 -5 30 10 17 32 11 38 -10z
m27 4 c0 -8 -5 -12 -10 -9 -6 4 -8 11 -5 16 9 14 15 11 15 -7z m150 1 c0 -8
-4 -15 -10 -15 -5 0 -10 7 -10 15 0 8 5 15 10 15 6 0 10 -7 10 -15z m505 -15
c0 -18 -6 -26 -23 -28 -13 -2 -25 3 -28 12 -10 26 4 48 28 44 17 -2 23 -10 23
-28z m134 16 c9 -11 10 -20 1 -36 -16 -29 -34 -20 -38 18 -4 35 16 44 37 18z
m135 -1 c20 -21 10 -43 -19 -41 -19 1 -23 6 -20 26 1 14 3 26 4 28 3 7 21 0
35 -13z m134 8 c-10 -2 -18 -13 -18 -23 0 -10 8 -21 18 -23 10 -3 6 -5 -10 -6
-25 -1 -28 3 -28 29 0 26 3 30 28 29 16 -1 20 -3 10 -6z m186 -9 c13 -33 6
-44 -24 -44 -27 0 -30 3 -30 30 0 25 4 30 24 30 13 0 27 -7 30 -16z m403 10
c-3 -3 -12 -4 -19 -1 -8 3 -5 6 6 6 11 1 17 -2 13 -5z m-4877 -36 c0 -5 -4 -8
-10 -8 -5 0 -10 10 -10 23 0 18 2 19 10 7 5 -8 10 -18 10 -22z m4684 17 c-4
-8 -11 -15 -16 -15 -6 0 -5 6 2 15 7 8 14 15 16 15 2 0 1 -7 -2 -15z m66 -9
c0 -18 -1 -18 -18 -3 -15 13 -21 14 -31 4 -10 -9 -11 -8 -6 5 10 25 55 20 55
-6z m-5170 -7 c0 -5 -7 -9 -15 -9 -8 0 -15 7 -15 15 0 9 6 12 15 9 8 -4 15
-10 15 -15z m294 6 c-7 -18 -44 -20 -44 -2 0 7 11 14 25 15 18 1 23 -2 19 -13z
m83 1 c-5 -14 -37 -16 -37 -3 0 8 -3 8 -8 2 -11 -15 -32 -17 -26 -2 5 15 76
18 71 3z m110 -12 c-25 -29 -30 -30 -22 -4 4 11 2 20 -4 20 -6 0 -11 -4 -11
-10 0 -15 -17 -12 -23 4 -4 10 6 13 38 13 l42 0 -20 -23z m73 10 c0 -7 -12
-12 -29 -12 -23 1 -26 4 -17 14 14 15 46 14 46 -2z m63 7 c-4 -3 -10 -9 -13
-12 -3 -4 -10 -1 -17 6 -9 10 -6 13 13 13 14 0 21 -3 17 -7z m64 -11 c4 -13 3
-13 -6 0 -10 13 -11 13 -11 0 0 -12 -2 -13 -9 -1 -7 11 -9 11 -14 0 -4 -10 -6
-8 -6 4 -1 23 40 20 46 -3z m4363 10 c0 -5 -4 -10 -10 -10 -5 0 -10 5 -10 10
0 6 5 10 10 10 6 0 10 -4 10 -10z m247 4 c-3 -3 -12 -4 -19 -1 -8 3 -5 6 6 6
11 1 17 -2 13 -5z m-1532 -14 c3 -5 -1 -10 -9 -10 -9 0 -16 5 -16 10 0 6 4 10
9 10 6 0 13 -4 16 -10z m1532 -16 c-3 -3 -12 -4 -19 -1 -8 3 -5 6 6 6 11 1 17
-2 13 -5z m-4010 -101 c4 -10 1 -19 -6 -21 -11 -4 -11 -6 0 -13 10 -6 5 -9
-16 -9 -21 0 -26 3 -16 9 11 7 11 9 0 13 -17 6 -4 38 16 38 9 0 19 -8 22 -17z
m1160 -13 c2 -24 -2 -31 -22 -36 -31 -8 -45 2 -45 30 0 29 7 36 39 36 22 0 26
-5 28 -30z m513 9 c0 -10 -25 -39 -33 -39 -14 0 -14 32 -1 45 16 15 34 12 34
-6z m215 0 c-4 -5 3 -9 14 -9 14 0 21 -6 21 -18 0 -14 -8 -18 -32 -17 -28 1
-33 5 -33 25 0 26 13 42 27 34 5 -3 6 -10 3 -15z m35 11 c0 -5 -4 -10 -10 -10
-5 0 -10 5 -10 10 0 6 5 10 10 10 6 0 10 -4 10 -10z m-4362 -22 c-2 -17 -11
-24 -30 -26 -24 -3 -28 0 -28 22 0 22 4 26 31 26 26 0 30 -3 27 -22z m122 -1
c0 -11 -1 -18 -3 -16 -1 2 -8 11 -15 20 -9 13 -9 16 3 16 8 0 15 -9 15 -20z
m17 -9 c-3 -7 -5 -2 -5 12 0 14 2 19 5 13 2 -7 2 -19 0 -25z m54 23 c8 12 11
12 18 -1 14 -20 4 -29 -28 -27 -26 2 -28 4 -18 22 7 14 12 16 15 6 4 -11 6
-11 13 0z m153 -13 c-8 -28 -12 -33 -20 -25 -9 8 6 47 17 47 6 0 7 -10 3 -22z
m102 1 c0 -17 -12 -19 -33 -6 -20 13 -15 23 10 23 15 0 23 -6 23 -17z m21 -1
c-3 -8 -6 -5 -6 6 -1 11 2 17 5 13 3 -3 4 -12 1 -19z m20 0 c-3 -8 -6 -5 -6 6
-1 11 2 17 5 13 3 -3 4 -12 1 -19z m20 -10 c-3 -7 -5 -2 -5 12 0 14 2 19 5 13
2 -7 2 -19 0 -25z m40 12 c1 -11 -2 -20 -5 -20 -4 0 -8 9 -9 20 -1 11 2 20 5
20 4 0 8 -9 9 -20z m224 10 c5 0 9 -7 9 -15 0 -20 -16 -19 -24 2 -6 15 -8 15
-16 3 -8 -12 -10 -12 -10 4 0 12 5 16 16 12 9 -3 20 -6 25 -6z m73 -22 c-3 -4
-10 -8 -15 -8 -6 0 -7 6 -3 13 6 9 4 9 -8 -1 -13 -10 -17 -10 -21 2 -4 10 2
16 16 18 23 3 40 -10 31 -24z m143 6 c0 -17 -13 -18 -23 -3 -4 8 -9 7 -15 -2
-6 -10 -9 -9 -9 7 0 17 5 20 23 17 13 -3 24 -11 24 -19z m92 12 c3 5 29 6 56
3 28 -3 42 -7 32 -7 -10 -1 -15 -6 -12 -12 3 -5 1 -10 -4 -10 -6 0 -11 5 -11
10 0 6 -5 10 -11 10 -5 0 -7 -5 -4 -10 8 -13 -18 -8 -27 5 -5 6 -8 5 -8 -4 0
-11 -3 -11 -15 -1 -8 7 -15 18 -14 24 0 6 3 5 6 -3 3 -7 8 -9 12 -5z m328 -8
c-3 -8 -6 -5 -6 6 -1 11 2 17 5 13 3 -3 4 -12 1 -19z m123 11 c0 -3 15 -5 33
-3 25 3 34 0 34 -11 0 -11 -4 -12 -10 -6 -7 7 -15 7 -23 0 -9 -7 -19 -7 -34 1
-16 9 -25 9 -33 1 -14 -14 -30 -14 -22 -1 3 6 -1 7 -9 4 -9 -3 -16 -1 -16 4 0
6 8 12 17 14 27 5 63 3 63 -3z m224 -1 c-6 -10 -4 -10 7 0 18 17 28 15 25 -5
-2 -10 -11 -18 -22 -18 -10 0 -20 8 -22 18 -2 9 2 17 8 17 6 0 8 -6 4 -12z
m148 2 c29 0 36 -6 13 -10 -5 -1 -16 -7 -24 -13 -10 -9 -16 -7 -26 6 -16 22
-29 22 -20 0 5 -14 3 -15 -6 -6 -15 15 -2 36 18 29 8 -3 29 -6 45 -6z m308 -7
c11 -10 -25 -21 -37 -12 -6 6 -21 8 -33 4 -14 -5 -20 -2 -20 9 0 13 8 15 43
10 23 -4 44 -9 47 -11z m324 4 c3 3 6 -1 6 -10 0 -9 -7 -17 -15 -17 -8 0 -15
6 -15 13 0 8 -4 7 -10 -3 -8 -12 -10 -11 -10 8 0 19 3 21 19 13 10 -6 21 -7
25 -4z m62 -24 c-3 -3 -12 -1 -19 5 -8 7 -17 9 -20 5 -4 -3 -7 -1 -7 6 0 7 7
11 15 8 8 -4 18 -1 22 6 5 8 9 6 11 -6 2 -10 1 -21 -2 -24z m27 14 c-5 -9 -3
-9 8 -1 20 15 61 16 53 1 -3 -7 2 -3 10 7 15 18 18 18 15 0 0 -4 4 -10 10 -13
6 -4 -16 -7 -49 -7 -52 -1 -60 2 -60 18 0 11 5 16 10 13 6 -4 7 -12 3 -18z
m163 -14 c-3 -3 -13 0 -23 8 -9 8 -14 9 -10 2 4 -6 3 -14 -3 -18 -5 -3 -10 3
-10 14 0 24 10 27 29 9 7 -7 12 -8 11 -3 -4 19 2 30 7 12 3 -10 2 -21 -1 -24z
m21 15 c-3 -8 -6 -5 -6 6 -1 11 2 17 5 13 3 -3 4 -12 1 -19z m138 2 c0 -9 -11
-16 -30 -18 -29 -3 -29 -3 -10 12 16 13 17 15 3 10 -11 -4 -18 -1 -18 6 0 6
11 10 28 8 16 -2 27 -9 27 -18z m52 -2 c-3 -8 -6 -5 -6 6 -1 11 2 17 5 13 3
-3 4 -12 1 -19z m395 7 c11 -15 -3 -27 -18 -14 -11 9 -14 9 -14 -1 0 -8 -2
-11 -5 -8 -3 3 -3 12 1 21 6 17 24 18 36 2z m271 8 c4 -3 34 -5 67 -4 55 2 60
1 60 -18 0 -12 -5 -21 -11 -21 -6 0 -8 7 -5 16 5 14 4 15 -9 4 -12 -10 -15
-10 -15 1 0 11 -2 11 -9 0 -8 -12 -12 -13 -26 -1 -9 7 -15 9 -14 4 4 -21 -2
-28 -11 -14 -6 10 -10 11 -10 3 0 -7 -5 -13 -11 -13 -5 0 -7 5 -3 12 4 6 -1
17 -11 25 -11 7 -14 13 -9 13 6 0 14 -3 17 -7z m175 -2 c10 -6 9 -10 -7 -14
-14 -3 -21 0 -21 9 0 16 9 18 28 5z m590 -8 c-5 -25 -28 -28 -28 -4 0 12 6 21
16 21 9 0 14 -7 12 -17z m27 8 c-3 -5 -1 -12 5 -16 5 -3 10 2 10 11 0 14 3 15
12 6 10 -10 10 -15 -2 -22 -23 -15 -36 -12 -37 10 -1 11 3 20 8 20 6 0 8 -4 4
-9z m173 -13 c-2 -17 -10 -23 -28 -23 -18 0 -26 6 -28 23 -3 19 1 22 28 22 27
0 31 -3 28 -22z m61 5 c-13 -15 -12 -15 9 -4 17 9 22 9 22 -1 0 -7 -11 -14
-25 -14 -18 -2 -25 3 -25 17 0 11 7 19 16 19 14 0 15 -2 3 -17z m288 -6 c-2
-6 -15 -11 -29 -11 -16 -1 -24 3 -21 9 3 5 0 4 -8 -2 -16 -15 -33 -17 -24 -3
3 6 -1 7 -9 4 -9 -3 -16 -1 -16 4 0 14 25 18 73 13 21 -2 36 -8 34 -14z m128
12 c4 -6 4 -13 0 -17 -4 -4 -10 -1 -12 6 -4 10 -8 10 -19 1 -8 -6 -14 -7 -14
-2 0 23 33 32 45 12z m65 1 c-13 -9 -13 -11 0 -20 9 -6 10 -10 3 -10 -6 0 -15
5 -18 10 -8 13 3 30 18 30 7 0 6 -4 -3 -10z m37 -12 c2 -18 0 -20 -7 -8 -12
18 -13 30 -2 30 4 0 9 -10 9 -22z m97 10 c20 0 33 -5 33 -13 0 -8 -9 -13 -19
-12 -10 1 -18 6 -18 12 0 5 -5 3 -10 -5 -8 -12 -10 -12 -10 -1 0 11 -3 11 -15
1 -19 -16 -40 -3 -24 16 6 7 16 11 21 8 5 -3 24 -6 42 -6z m269 -2 c9 1 17 -3
17 -10 0 -14 -53 -16 -66 -3 -5 4 -2 12 6 17 8 5 17 5 20 1 3 -5 13 -7 23 -5z
m304 -23 c-3 -3 -11 -2 -17 2 -8 5 -7 11 2 22 12 15 13 14 16 -1 2 -10 1 -20
-1 -23z m-4987 12 c0 -8 -7 -15 -15 -15 -8 0 -15 7 -15 15 0 8 7 15 15 15 8 0
15 -7 15 -15z m136 -1 c-9 -8 -20 -12 -26 -9 -15 9 -2 25 21 25 19 0 19 -1 5
-16z m284 -4 c0 -11 -4 -20 -10 -20 -5 0 -10 9 -10 20 0 11 5 20 10 20 6 0 10
-9 10 -20z m127 -2 c-3 -8 -6 -5 -6 6 -1 11 2 17 5 13 3 -3 4 -12 1 -19z m212
5 c0 -11 -3 -13 -6 -5 -2 6 -9 12 -14 12 -6 0 -7 -4 -4 -10 3 -5 1 -10 -4 -10
-6 0 -11 7 -11 15 0 8 9 15 20 15 13 0 20 -6 19 -17z m335 5 c-3 -5 -13 -7
-21 -4 -8 3 -11 2 -8 -3 3 -5 1 -12 -5 -16 -5 -3 -10 3 -10 13 0 14 7 20 25
20 13 0 22 -5 19 -10z m56 -5 c0 -15 -2 -16 -10 -3 -9 13 -11 13 -20 0 -8 -13
-10 -12 -10 3 0 10 8 17 20 17 12 0 20 -7 20 -17z m62 10 c-6 -2 -10 -8 -7
-12 2 -5 -7 -6 -20 -3 -36 6 -31 22 8 21 17 0 26 -3 19 -6z m168 -10 c0 -17
-20 -17 -20 0 -1 7 -6 5 -14 -5 -17 -24 -25 -23 -19 2 6 22 53 25 53 3z m764
2 c-4 -8 -7 -15 -9 -15 -2 0 -5 7 -9 15 -3 9 0 15 9 15 9 0 12 -6 9 -15z m23
-7 c-3 -8 -6 -5 -6 6 -1 11 2 17 5 13 3 -3 4 -12 1 -19z m30 7 c0 -8 -4 -15
-9 -15 -4 0 -8 7 -8 15 0 8 4 15 8 15 5 0 9 -7 9 -15z m30 0 c0 -8 -4 -15 -8
-15 -11 0 -20 16 -12 24 11 11 20 7 20 -9z m33 3 c0 8 19 12 60 12 51 0 60 -3
59 -17 0 -11 -3 -13 -6 -6 -3 10 -10 10 -25 2 -16 -9 -19 -8 -13 3 6 10 5 11
-6 1 -16 -15 -33 -17 -24 -3 3 6 -1 10 -10 10 -9 0 -14 -3 -12 -7 3 -5 -6 -9
-19 -9 -16 -1 -24 3 -24 15 0 14 2 14 10 1 6 -10 10 -11 10 -2z m171 5 c-11
-5 -11 -7 0 -14 10 -6 7 -8 -9 -6 -29 2 -29 22 1 24 12 0 16 -1 8 -4z m99 -13
c0 -11 -4 -20 -9 -20 -6 0 -9 9 -8 20 1 11 5 20 9 20 4 0 8 -9 8 -20z m527 5
c0 -6 -8 -11 -18 -11 -10 0 -15 4 -13 8 3 4 -2 8 -11 8 -9 0 -14 -4 -11 -8 2
-4 -4 -9 -15 -9 -11 -1 -19 5 -19 13 0 11 11 14 43 13 24 -2 44 -8 44 -14z
m30 0 c0 -8 -4 -15 -9 -15 -4 0 -8 7 -8 15 0 8 4 15 8 15 5 0 9 -7 9 -15z
m760 -7 c-3 -8 -6 -5 -6 6 -1 11 2 17 5 13 3 -3 4 -12 1 -19z m33 13 c0 -6 -4
-13 -10 -16 -5 -3 -10 1 -10 9 0 9 5 16 10 16 6 0 10 -4 10 -9z m90 -3 c0 -5
-7 -8 -15 -4 -8 3 -15 1 -15 -4 0 -5 -7 -7 -15 -4 -25 10 -17 21 15 22 17 0
30 -4 30 -10z m760 -3 c0 -8 -4 -15 -10 -15 -5 0 -10 7 -10 15 0 8 5 15 10 15
6 0 10 -7 10 -15z m27 -7 c-3 -8 -6 -5 -6 6 -1 11 2 17 5 13 3 -3 4 -12 1 -19z
m53 10 c0 -8 3 -9 8 -3 4 6 19 12 34 13 23 3 27 0 21 -14 -4 -11 -8 -13 -11
-6 -2 7 -8 12 -13 12 -6 0 -8 -4 -5 -9 5 -7 -13 -8 -46 -2 -12 2 -10 21 2 21
6 0 10 -6 10 -12z m90 -3 c0 -8 -4 -15 -10 -15 -5 0 -7 7 -4 15 4 8 8 15 10
15 2 0 4 -7 4 -15z m44 0 c-5 -12 -10 -13 -20 -4 -19 15 -18 19 6 19 13 0 18
-5 14 -15z m130 0 c11 -8 15 -15 9 -15 -7 0 -14 4 -17 9 -7 10 -31 9 -42 -2
-12 -12 -24 -8 -24 8 0 20 48 19 74 0z m43 0 c0 -11 -4 -12 -14 -4 -7 6 -13
13 -13 15 0 2 6 4 13 4 8 0 14 -7 14 -15z m433 5 c0 -5 -4 -10 -10 -10 -5 0
-10 5 -10 10 0 6 5 10 10 10 6 0 10 -4 10 -10z m-960 -10 c0 -5 -12 -10 -26
-10 -14 0 -23 4 -19 10 3 6 15 10 26 10 10 0 19 -4 19 -10z"/>
<path d="M2085 3700 c-3 -6 1 -7 9 -4 18 7 21 14 7 14 -6 0 -13 -4 -16 -10z"/>
<path d="M94 3549 c-3 -6 -1 -16 5 -22 8 -8 11 -5 11 11 0 24 -5 28 -16 11z"/>
<path d="M1080 3545 c0 -8 5 -15 10 -15 6 0 10 7 10 15 0 8 -4 15 -10 15 -5 0
-10 -7 -10 -15z"/>
<path d="M6130 3535 c0 -8 5 -15 10 -15 6 0 10 5 10 11 0 5 5 7 12 3 7 -4 8
-3 4 4 -10 17 -36 15 -36 -3z"/>
<path d="M3170 2563 c0 -7 221 -237 231 -241 5 -2 9 4 9 13 0 26 -185 222
-215 227 -14 3 -25 3 -25 1z"/>
<path d="M3092 2551 c2 -5 73 -82 158 -171 126 -132 156 -158 158 -141 4 27
-271 321 -301 321 -10 0 -17 -4 -15 -9z"/>
<path d="M3327 2485 c37 -41 71 -75 76 -75 4 0 7 8 7 18 0 27 -103 132 -130
132 -18 0 -10 -12 47 -75z"/>
<path d="M3376 2529 c23 -24 30 -27 32 -14 6 28 -7 45 -35 45 l-27 0 30 -31z"/>
<path d="M3040 2532 c0 -24 56 -88 257 -292 87 -89 113 -110 113 -93 0 14 -49
72 -141 170 -235 247 -229 241 -229 215z"/>
<path d="M3040 2439 c0 -19 33 -60 133 -165 73 -76 156 -164 185 -194 46 -49
52 -52 52 -31 0 17 -37 62 -127 158 -71 74 -154 162 -185 196 -53 57 -58 60
-58 36z"/>
<path d="M3040 2343 c0 -22 81 -113 292 -328 60 -62 78 -75 78 -59 0 20 -65
94 -277 314 -75 77 -92 91 -93 73z"/>
<path d="M3040 2251 c0 -16 20 -45 58 -85 289 -307 312 -329 312 -305 0 16
-26 50 -78 105 -42 44 -125 132 -184 195 -89 94 -108 110 -108 90z"/>
<path d="M3040 2153 c0 -17 21 -41 237 -267 108 -113 133 -135 133 -115 0 16
-25 50 -78 104 -42 44 -123 129 -179 188 -57 59 -105 107 -108 107 -3 0 -5 -7
-5 -17z"/>
<path d="M3040 2062 c0 -16 53 -78 182 -212 100 -105 183 -190 185 -190 1 0 3
9 3 20 0 12 -37 59 -89 113 -49 50 -132 137 -185 192 -77 81 -95 96 -96 77z"/>
<path d="M3040 1964 c0 -9 66 -86 148 -172 81 -85 164 -173 185 -196 34 -38
37 -39 37 -17 0 16 -20 46 -57 85 -131 140 -302 316 -308 316 -3 0 -5 -7 -5
-16z"/>
<path d="M3040 1872 c0 -10 55 -77 122 -148 256 -269 247 -261 248 -236 0 16
-52 79 -177 211 -98 104 -181 189 -185 190 -5 1 -8 -7 -8 -17z"/>
<path d="M3040 1782 c0 -23 45 -74 255 -291 76 -78 111 -108 113 -96 4 15 -46
71 -267 305 -81 85 -100 101 -101 82z"/>
<path d="M3040 1684 c0 -13 47 -70 133 -160 73 -76 156 -164 185 -194 47 -50
52 -53 52 -30 -1 33 -369 417 -370 384z"/>
<path d="M3040 1593 c0 -15 36 -59 109 -135 59 -62 142 -149 184 -193 67 -70
76 -77 76 -55 0 34 -368 417 -369 383z"/>
<path d="M3040 1501 c0 -16 25 -49 78 -104 255 -267 287 -298 290 -282 4 16
-51 78 -257 295 -91 95 -110 111 -111 91z"/>
<path d="M3042 1400 c2 -10 84 -105 183 -210 147 -156 181 -187 183 -170 3 16
-19 46 -84 114 -212 219 -277 286 -281 286 -2 0 -3 -9 -1 -20z"/>
<path d="M3040 1311 c0 -16 31 -55 103 -130 56 -58 130 -136 163 -171 34 -36
71 -74 83 -84 21 -19 21 -19 21 3 0 15 -38 62 -113 139 -62 64 -145 151 -185
192 -61 64 -72 72 -72 51z"/>
<path d="M3040 1214 c0 -9 51 -70 113 -135 61 -66 145 -155 184 -197 63 -67
73 -74 73 -52 -1 25 -23 51 -257 294 -56 58 -104 106 -107 106 -4 0 -6 -7 -6
-16z"/>
<path d="M3040 1124 c0 -21 52 -81 253 -289 99 -102 116 -116 116 -95 0 19
-44 71 -184 215 -133 138 -184 184 -185 169z"/>
<path d="M3040 1031 c0 -24 7 -33 247 -280 97 -100 123 -121 123 -104 0 22
-77 108 -292 328 -66 68 -78 76 -78 56z"/>
<path d="M3040 932 c0 -10 62 -82 138 -161 100 -104 143 -142 156 -140 16 3
-1 26 -85 114 -58 61 -125 131 -149 158 -48 51 -60 57 -60 29z"/>
<path d="M3040 843 c0 -33 179 -217 205 -211 16 3 -1 25 -92 118 -89 91 -113
110 -113 93z"/>
<path d="M3040 742 c0 -23 90 -112 113 -112 27 0 21 12 -41 73 -62 61 -72 67
-72 39z"/>
<path d="M3040 650 c0 -13 7 -20 20 -20 18 0 19 2 8 20 -7 11 -16 20 -20 20
-5 0 -8 -9 -8 -20z"/>
</g>
</svg>
